<?xml version="1.0" encoding="UTF-8"?>
<svg xmlns="http://www.w3.org/2000/svg" version="1.1" width="501px" height="498px"
    style="shape-rendering:geometricPrecision; text-rendering:geometricPrecision; image-rendering:optimizeQuality; fill-rule:evenodd; clip-rule:evenodd"
    xmlns:xlink="http://www.w3.org/1999/xlink">
    <g>
        <path style="opacity:0.29" fill="#393839"
            d="M 105.5,30.5 C 104.833,30.5 104.167,30.5 103.5,30.5C 101.167,29.1667 98.8333,29.1667 96.5,30.5C 95.5,30.8333 94.8333,31.5 94.5,32.5C 93.8333,32.8333 93.1667,33.1667 92.5,33.5C 93.6182,29.891 96.1182,27.891 100,27.5C 102.296,27.8588 104.129,28.8588 105.5,30.5 Z" />
    </g>
    <g>
        <path style="opacity:0.329" fill="#3c3c3c"
            d="M 294.5,29.5 C 294.167,29.5 293.833,29.5 293.5,29.5C 291.167,29.5 288.833,29.5 286.5,29.5C 289.167,26.8333 291.833,26.8333 294.5,29.5 Z" />
    </g>
    <g>
        <path style="opacity:0.396" fill="#414141"
            d="M 391.5,30.5 C 390.833,30.5 390.167,30.5 389.5,30.5C 386.638,29.3187 383.638,29.3187 380.5,30.5C 381.958,28.9892 383.791,27.9892 386,27.5C 388.209,27.9892 390.042,28.9892 391.5,30.5 Z" />
    </g>
    <g>
        <path style="opacity:1" fill="#c2c1c1"
            d="M 191.5,29.5 C 193.95,29.298 196.283,29.6314 198.5,30.5C 198.17,49.0076 198.503,67.3409 199.5,85.5C 199.5,86.1667 199.5,86.8333 199.5,87.5C 196.833,87.5 194.167,87.5 191.5,87.5C 191.5,68.5 191.5,49.5 191.5,30.5C 191.5,30.1667 191.5,29.8333 191.5,29.5 Z" />
    </g>
    <g>
        <path style="opacity:0.024" fill="#201d1f"
            d="M 380.5,30.5 C 380.5,30.8333 380.5,31.1667 380.5,31.5C 379.778,31.9175 379.278,32.5842 379,33.5C 378.501,37.1516 378.335,40.8183 378.5,44.5C 377.355,40.6888 377.188,36.6888 378,32.5C 378.417,31.244 379.25,30.5774 380.5,30.5 Z" />
    </g>
    <g>
        <path style="opacity:0.655" fill="#484748"
            d="M 105.5,30.5 C 106.79,31.0577 107.623,32.0577 108,33.5C 108.372,37.7983 108.539,41.7983 108.5,45.5C 108.5,46.1667 108.167,46.5 107.5,46.5C 106.741,41.3021 106.075,35.9687 105.5,30.5 Z" />
    </g>
    <g>
        <path style="opacity:0.424" fill="#403c40"
            d="M 286.5,29.5 C 286.5,29.8333 286.5,30.1667 286.5,30.5C 285.833,30.5 285.5,30.8333 285.5,31.5C 283.896,35.8996 283.229,40.5662 283.5,45.5C 283.5,46.1667 283.167,46.5 282.5,46.5C 282.5,46.1667 282.5,45.8333 282.5,45.5C 282.334,41.1539 282.501,36.8206 283,32.5C 283.422,30.5743 284.589,29.5743 286.5,29.5 Z" />
    </g>
    <g>
        <path style="opacity:0.037" fill="#1a1a17"
            d="M 298.5,33.5 C 299.483,37.2984 299.817,41.2984 299.5,45.5C 300.5,45.5 301.5,45.5 302.5,45.5C 301.432,46.4345 300.099,46.7678 298.5,46.5C 298.5,42.1667 298.5,37.8333 298.5,33.5 Z" />
    </g>
    <g>
        <path style="opacity:0.316" fill="#3c3a3c"
            d="M 191.5,29.5 C 199.839,27.1992 204.173,30.5325 204.5,39.5C 204.46,41.4289 204.127,43.2622 203.5,45C 204.094,45.4643 204.761,45.631 205.5,45.5C 204.791,46.404 203.791,46.7373 202.5,46.5C 202.666,42.4862 202.499,38.4862 202,34.5C 201.768,33.2625 201.268,32.2625 200.5,31.5C 199.833,31.1667 199.167,30.8333 198.5,30.5C 196.283,29.6314 193.95,29.298 191.5,29.5 Z" />
    </g>
    <g>
        <path style="opacity:0.027" fill="#280b07"
            d="M 393.5,34.5 C 394.482,37.9619 394.815,41.6286 394.5,45.5C 405.346,45.1722 416.013,45.5056 426.5,46.5C 415.5,46.5 404.5,46.5 393.5,46.5C 393.5,42.5 393.5,38.5 393.5,34.5 Z" />
    </g>
    <g>
        <path style="opacity:0.395" fill="#7c3c37"
            d="M 89.5,45.5 C 89.8333,46.1667 90.1667,46.8333 90.5,47.5C 78.8333,47.5 67.1667,47.5 55.5,47.5C 56.9516,46.6981 58.6183,46.1981 60.5,46C 70.1609,45.5002 79.8276,45.3335 89.5,45.5 Z" />
    </g>
    <g>
        <path style="opacity:0.361" fill="#80453e"
            d="M 108.5,45.5 C 134.878,45.1846 161.211,45.5179 187.5,46.5C 188.833,56.1667 188.833,65.8333 187.5,75.5C 187.5,66.1667 187.5,56.8333 187.5,47.5C 161.498,47.3334 135.498,47.5 109.5,48C 108.179,57.1665 108.179,66.3332 109.5,75.5C 107.89,78.2033 106.89,81.2033 106.5,84.5C 106.5,72.1667 106.5,59.8333 106.5,47.5C 107.167,47.5 107.5,47.1667 107.5,46.5C 108.167,46.5 108.5,46.1667 108.5,45.5 Z" />
    </g>
    <g>
        <path style="opacity:0.351" fill="#85413b"
            d="M 205.5,45.5 C 231.167,45.5 256.833,45.5 282.5,45.5C 282.5,45.8333 282.5,46.1667 282.5,46.5C 281.833,46.5 281.5,46.8333 281.5,47.5C 255.831,47.3334 230.165,47.5 204.5,48C 203.515,57.0828 203.182,66.2494 203.5,75.5C 202.506,66.0144 202.173,56.3478 202.5,46.5C 203.791,46.7373 204.791,46.404 205.5,45.5 Z" />
    </g>
    <g>
        <path style="opacity:1" fill="#c1c0c2"
            d="M 286.5,29.5 C 288.833,29.5 291.167,29.5 293.5,29.5C 294.342,34.787 294.676,40.1203 294.5,45.5C 293.833,58.6728 293.167,72.0061 292.5,85.5C 290.929,86.3094 289.262,86.6427 287.5,86.5C 286.566,67.8565 286.233,49.1898 286.5,30.5C 286.5,30.1667 286.5,29.8333 286.5,29.5 Z" />
    </g>
    <g>
        <path style="opacity:0.357" fill="#853f39"
            d="M 302.5,45.5 C 327.5,45.5 352.5,45.5 377.5,45.5C 377.5,46.1667 377.5,46.8333 377.5,47.5C 351.5,47.5 325.5,47.5 299.5,47.5C 299.5,56.8333 299.5,66.1667 299.5,75.5C 299.167,75.5 298.833,75.5 298.5,75.5C 298.5,65.8333 298.5,56.1667 298.5,46.5C 300.099,46.7678 301.432,46.4345 302.5,45.5 Z" />
    </g>
    <g>
        <path style="opacity:1" fill="#aeaaaa"
            d="M 96.5,30.5 C 96.8302,49.3408 96.4969,68.0075 95.5,86.5C 94.5685,68.5234 94.2352,50.5234 94.5,32.5C 94.8333,31.5 95.5,30.8333 96.5,30.5 Z" />
    </g>
    <g>
        <path style="opacity:1" fill="#c6c2c3"
            d="M 103.5,30.5 C 103.5,49.1667 103.5,67.8333 103.5,86.5C 101.052,87.4731 98.3854,87.8064 95.5,87.5C 95.5,87.1667 95.5,86.8333 95.5,86.5C 96.4969,68.0075 96.8302,49.3408 96.5,30.5C 98.8333,29.1667 101.167,29.1667 103.5,30.5 Z" />
    </g>
    <g>
        <path style="opacity:0.92" fill="#d96454"
            d="M 187.5,75.5 C 187.167,75.5 186.833,75.5 186.5,75.5C 186.817,71.2984 186.483,67.2984 185.5,63.5C 185.5,58.5 185.5,53.5 185.5,48.5C 160.5,48.5 135.5,48.5 110.5,48.5C 110.5,55.1667 110.5,61.8333 110.5,68.5C 111.159,71.4552 111.492,74.4552 111.5,77.5C 110.833,76.8333 110.167,76.1667 109.5,75.5C 108.179,66.3332 108.179,57.1665 109.5,48C 135.498,47.5 161.498,47.3334 187.5,47.5C 187.5,56.8333 187.5,66.1667 187.5,75.5 Z" />
    </g>
    <g>
        <path style="opacity:0.925" fill="#d36453"
            d="M 281.5,47.5 C 283.472,56.4401 284.139,65.7734 283.5,75.5C 283.167,75.5 282.833,75.5 282.5,75.5C 281.222,75.7822 280.222,76.4489 279.5,77.5C 279.5,76.5 279.5,75.5 279.5,74.5C 280.442,65.8873 280.775,57.2206 280.5,48.5C 255.5,48.5 230.5,48.5 205.5,48.5C 205.334,57.1731 205.5,65.8397 206,74.5C 206.383,75.056 206.883,75.3893 207.5,75.5C 207.5,76.8333 207.5,78.1667 207.5,79.5C 207.167,79.5 206.833,79.5 206.5,79.5C 206.446,77.368 205.446,76.0347 203.5,75.5C 203.182,66.2494 203.515,57.0828 204.5,48C 230.165,47.5 255.831,47.3334 281.5,47.5 Z" />
    </g>
    <g>
        <path style="opacity:0.919" fill="#d36454"
            d="M 377.5,47.5 C 378.494,56.6517 378.827,65.985 378.5,75.5C 378.167,75.5 377.833,75.5 377.5,75.5C 376.272,76.3065 375.272,77.3065 374.5,78.5C 374.629,76.7839 374.962,75.1172 375.5,73.5C 376.493,65.3501 376.826,57.0168 376.5,48.5C 351.167,48.5 325.833,48.5 300.5,48.5C 300.334,57.8393 300.5,67.1726 301,76.5C 302.039,77.2438 302.539,78.2438 302.5,79.5C 301.5,78.8333 300.5,78.1667 299.5,77.5C 299.5,76.8333 299.5,76.1667 299.5,75.5C 299.5,66.1667 299.5,56.8333 299.5,47.5C 325.5,47.5 351.5,47.5 377.5,47.5 Z" />
    </g>
    <g>
        <path style="opacity:0.948" fill="#d06257"
            d="M 430.5,47.5 C 430.833,47.5 431.167,47.5 431.5,47.5C 438.283,51.0674 444.616,55.4007 450.5,60.5C 450.5,61.1667 450.5,61.8333 450.5,62.5C 447.531,60.0081 444.531,57.5081 441.5,55C 437.489,53.6611 433.822,51.8278 430.5,49.5C 419.52,48.5012 408.52,48.1679 397.5,48.5C 395.529,57.1045 394.862,66.1045 395.5,75.5C 395.167,75.5 394.833,75.5 394.5,75.5C 394.167,75.5 393.833,75.5 393.5,75.5C 393.5,66.1667 393.5,56.8333 393.5,47.5C 405.833,47.5 418.167,47.5 430.5,47.5 Z" />
    </g>
    <g>
        <path style="opacity:1" fill="#f06047"
            d="M 375.5,73.5 C 375.5,70.5 375.5,67.5 375.5,64.5C 375.867,60.0329 375.367,55.6996 374,51.5C 370.729,54.1972 367.729,53.8639 365,50.5C 360.333,51.8333 355.667,51.8333 351,50.5C 350.333,51.1667 349.667,51.8333 349,52.5C 339.667,52.5 330.333,52.5 321,52.5C 320.333,51.8333 319.667,51.1667 319,50.5C 315,50.5 311,50.5 307,50.5C 303.695,52.1063 302.195,54.773 302.5,58.5C 300.844,65.6119 301.51,72.6119 304.5,79.5C 304.737,80.791 304.404,81.791 303.5,82.5C 303.737,81.209 303.404,80.209 302.5,79.5C 302.539,78.2438 302.039,77.2438 301,76.5C 300.5,67.1726 300.334,57.8393 300.5,48.5C 325.833,48.5 351.167,48.5 376.5,48.5C 376.826,57.0168 376.493,65.3501 375.5,73.5 Z" />
    </g>
    <g>
        <path style="opacity:0.541" fill="#70332c"
            d="M 54.5,47.5 C 53.0158,49.0737 51.3492,50.407 49.5,51.5C 47.1667,52.1667 44.8333,52.8333 42.5,53.5C 45.9024,50.4654 49.9024,48.4654 54.5,47.5 Z" />
    </g>
    <g>
        <path style="opacity:1" fill="#9c7e7b"
            d="M 106.5,47.5 C 106.5,59.8333 106.5,72.1667 106.5,84.5C 104.752,89.1817 101.419,90.6817 96.5,89C 95.944,88.6174 95.6107,88.1174 95.5,87.5C 98.3854,87.8064 101.052,87.4731 103.5,86.5C 104.268,85.7375 104.768,84.7375 105,83.5C 105.169,71.3263 105.669,59.3263 106.5,47.5 Z" />
    </g>
    <g>
        <path style="opacity:1" fill="#f75e41"
            d="M 375.5,64.5 C 374.681,61.6946 374.181,58.6946 374,55.5C 374.193,60.3519 372.86,64.6852 370,68.5C 369.589,64.7696 368.256,61.4363 366,58.5C 344.97,59.1069 323.803,59.1069 302.5,58.5C 302.195,54.773 303.695,52.1063 307,50.5C 311,50.5 315,50.5 319,50.5C 319.667,51.1667 320.333,51.8333 321,52.5C 330.333,52.5 339.667,52.5 349,52.5C 349.667,51.8333 350.333,51.1667 351,50.5C 355.667,51.8333 360.333,51.8333 365,50.5C 367.729,53.8639 370.729,54.1972 374,51.5C 375.367,55.6996 375.867,60.0329 375.5,64.5 Z" />
    </g>
    <g>
        <path style="opacity:1" fill="#8a7d7c"
            d="M 94.5,32.5 C 94.2352,50.5234 94.5685,68.5234 95.5,86.5C 95.5,86.8333 95.5,87.1667 95.5,87.5C 94.6618,87.1583 94.3284,86.4916 94.5,85.5C 93.7172,71.1983 93.2172,56.865 93,42.5C 92.8091,40.2922 92.3091,38.2922 91.5,36.5C 92.1098,35.609 92.4431,34.609 92.5,33.5C 93.1667,33.1667 93.8333,32.8333 94.5,32.5 Z" />
    </g>
    <g>
        <path style="opacity:1" fill="#896d6b"
            d="M 294.5,29.5 C 296.833,29.8333 298.167,31.1667 298.5,33.5C 298.5,37.8333 298.5,42.1667 298.5,46.5C 298.5,56.1667 298.5,65.8333 298.5,75.5C 299.287,80.6297 297.954,84.9631 294.5,88.5C 290.547,90.1469 287.047,89.4802 284,86.5C 283.501,82.8484 283.335,79.1817 283.5,75.5C 284.139,65.7734 283.472,56.4401 281.5,47.5C 281.5,46.8333 281.833,46.5 282.5,46.5C 283.167,46.5 283.5,46.1667 283.5,45.5C 284.167,58.8333 284.833,72.1667 285.5,85.5C 286.713,86.5747 288.213,87.2414 290,87.5C 292.008,87.6932 293.508,87.0265 294.5,85.5C 295.222,85.0825 295.722,84.4158 296,83.5C 296.234,68.8188 296.734,54.1522 297.5,39.5C 297.415,35.814 296.415,32.4807 294.5,29.5 Z" />
    </g>
    <g>
        <path style="opacity:0.188" fill="#5b201d"
            d="M 431.5,47.5 C 439.799,49.159 446.132,53.4923 450.5,60.5C 444.616,55.4007 438.283,51.0674 431.5,47.5 Z" />
    </g>
    <g>
        <path style="opacity:1" fill="#89605a"
            d="M 91.5,36.5 C 92.3091,38.2922 92.8091,40.2922 93,42.5C 93.2172,56.865 93.7172,71.1983 94.5,85.5C 93.0181,82.3119 92.0181,78.9786 91.5,75.5C 91.8269,65.985 91.4936,56.6517 90.5,47.5C 90.1667,46.8333 89.8333,46.1667 89.5,45.5C 90.552,45.6495 91.552,45.4828 92.5,45C 91.5562,42.2809 91.2229,39.4475 91.5,36.5 Z" />
    </g>
    <g>
        <path style="opacity:1" fill="#9b9395"
            d="M 293.5,29.5 C 293.833,29.5 294.167,29.5 294.5,29.5C 296.415,32.4807 297.415,35.814 297.5,39.5C 296.734,54.1522 296.234,68.8188 296,83.5C 295.722,84.4158 295.222,85.0825 294.5,85.5C 294.5,72.1667 294.5,58.8333 294.5,45.5C 294.676,40.1203 294.342,34.787 293.5,29.5 Z" />
    </g>
    <g>
        <path style="opacity:1" fill="#979695"
            d="M 103.5,30.5 C 104.167,30.5 104.833,30.5 105.5,30.5C 106.075,35.9687 106.741,41.3021 107.5,46.5C 107.5,47.1667 107.167,47.5 106.5,47.5C 105.669,59.3263 105.169,71.3263 105,83.5C 104.768,84.7375 104.268,85.7375 103.5,86.5C 103.5,67.8333 103.5,49.1667 103.5,30.5 Z" />
    </g>
    <g>
        <path style="opacity:0.592" fill="#743833"
            d="M 42.5,53.5 C 42.0432,55.7727 40.7099,57.106 38.5,57.5C 39.1667,55.5 40.5,54.1667 42.5,53.5 Z" />
    </g>
    <g>
        <path style="opacity:1" fill="#8d6b65"
            d="M 391.5,30.5 C 393.104,31.287 393.771,32.6203 393.5,34.5C 393.5,38.5 393.5,42.5 393.5,46.5C 404.5,46.5 415.5,46.5 426.5,46.5C 428.099,46.2322 429.432,46.5655 430.5,47.5C 418.167,47.5 405.833,47.5 393.5,47.5C 393.5,56.8333 393.5,66.1667 393.5,75.5C 393.665,78.8499 393.498,82.1832 393,85.5C 392.29,86.9733 391.124,87.6399 389.5,87.5C 389.5,86.8333 389.5,86.1667 389.5,85.5C 390.117,85.3893 390.617,85.056 391,84.5C 391.278,69.324 391.778,54.1573 392.5,39C 392.394,36.1158 392.061,33.2825 391.5,30.5 Z" />
    </g>
    <g>
        <path style="opacity:1" fill="#786a64"
            d="M 191.5,29.5 C 191.5,29.8333 191.5,30.1667 191.5,30.5C 190.883,30.6107 190.383,30.944 190,31.5C 189.306,34.4682 188.806,37.4682 188.5,40.5C 189.434,55.4813 189.768,70.4813 189.5,85.5C 188.778,85.0825 188.278,84.4158 188,83.5C 187.503,80.854 187.336,78.1873 187.5,75.5C 188.833,65.8333 188.833,56.1667 187.5,46.5C 187.334,41.8215 187.501,37.1548 188,32.5C 188.422,30.5743 189.589,29.5743 191.5,29.5 Z" />
    </g>
    <g>
        <path style="opacity:1" fill="#d66455"
            d="M 54.5,47.5 C 54.8333,47.5 55.1667,47.5 55.5,47.5C 67.1667,47.5 78.8333,47.5 90.5,47.5C 91.4936,56.6517 91.8269,65.985 91.5,75.5C 90.2223,75.7822 89.2223,76.4489 88.5,77.5C 88.5,76.1667 88.5,74.8333 88.5,73.5C 89.4927,65.3501 89.8261,57.0168 89.5,48.5C 78.8281,48.3335 68.1615,48.5002 57.5,49C 55.1382,50.7313 52.4715,51.5646 49.5,51.5C 51.3492,50.407 53.0158,49.0737 54.5,47.5 Z" />
    </g>
    <g>
        <path style="opacity:1" fill="#b4aaae"
            d="M 286.5,30.5 C 286.233,49.1898 286.566,67.8565 287.5,86.5C 289.262,86.6427 290.929,86.3094 292.5,85.5C 293.167,72.0061 293.833,58.6728 294.5,45.5C 294.5,58.8333 294.5,72.1667 294.5,85.5C 293.508,87.0265 292.008,87.6932 290,87.5C 288.213,87.2414 286.713,86.5747 285.5,85.5C 285.5,67.5 285.5,49.5 285.5,31.5C 285.5,30.8333 285.833,30.5 286.5,30.5 Z" />
    </g>
    <g>
        <path style="opacity:1" fill="#927975"
            d="M 380.5,31.5 C 380.192,50.2132 380.526,68.8798 381.5,87.5C 380.25,87.4226 379.417,86.756 379,85.5C 378.502,82.1832 378.335,78.8499 378.5,75.5C 378.827,65.985 378.494,56.6517 377.5,47.5C 377.5,46.8333 377.5,46.1667 377.5,45.5C 378.167,45.5 378.5,45.1667 378.5,44.5C 378.335,40.8183 378.501,37.1516 379,33.5C 379.278,32.5842 379.778,31.9175 380.5,31.5 Z" />
    </g>
    <g>
        <path style="opacity:1" fill="#f65a42"
            d="M 88.5,73.5 C 74.9058,75.5997 61.2391,75.933 47.5,74.5C 46.2706,72.0816 44.2706,71.0816 41.5,71.5C 38.9534,71.4424 36.6201,72.1091 34.5,73.5C 33.8165,73.1373 33.1499,72.8039 32.5,72.5C 32.2771,69.8858 33.4438,68.2191 36,67.5C 36.4955,65.5273 36.6621,63.5273 36.5,61.5C 37.1667,60.1667 37.8333,58.8333 38.5,57.5C 40.7099,57.106 42.0432,55.7727 42.5,53.5C 44.8333,52.8333 47.1667,52.1667 49.5,51.5C 52.4715,51.5646 55.1382,50.7313 57.5,49C 68.1615,48.5002 78.8281,48.3335 89.5,48.5C 89.8261,57.0168 89.4927,65.3501 88.5,73.5 Z" />
    </g>
    <g>
        <path style="opacity:1" fill="#f45d44"
            d="M 279.5,74.5 C 279.167,74.5 278.833,74.5 278.5,74.5C 278.301,66.3666 277.134,58.3666 275,50.5C 273.961,56.4426 273.295,62.4426 273,68.5C 272,66.8333 271,65.1667 270,63.5C 262.243,64.1591 254.409,64.4924 246.5,64.5C 233.236,64.5938 220.069,63.9271 207,62.5C 206.371,66.8706 206.537,71.204 207.5,75.5C 206.883,75.3893 206.383,75.056 206,74.5C 205.5,65.8397 205.334,57.1731 205.5,48.5C 230.5,48.5 255.5,48.5 280.5,48.5C 280.775,57.2206 280.442,65.8873 279.5,74.5 Z" />
    </g>
    <g>
        <path style="opacity:1" fill="#f55942"
            d="M 397.5,48.5 C 408.52,48.1679 419.52,48.5012 430.5,49.5C 433.822,51.8278 437.489,53.6611 441.5,55C 444.531,57.5081 447.531,60.0081 450.5,62.5C 452.864,65.2661 454.864,68.2661 456.5,71.5C 456.5,73.1667 456.5,74.8333 456.5,76.5C 456.5,82.8333 456.5,89.1667 456.5,95.5C 455.833,95.5 455.167,95.5 454.5,95.5C 454.144,89.923 453.144,84.5896 451.5,79.5C 450.359,77.7705 448.693,76.7705 446.5,76.5C 445.5,76.6667 444.5,76.8333 443.5,77C 443.833,77.3333 444.167,77.6667 444.5,78C 434.172,78.4998 423.839,78.6665 413.5,78.5C 413.412,81.3087 411.912,82.642 409,82.5C 407.674,82.2451 406.674,81.5784 406,80.5C 403.441,83.8425 401.608,88.1758 400.5,93.5C 400.5,94.1667 400.167,94.5 399.5,94.5C 400.442,89.1946 400.609,83.8613 400,78.5C 398.615,77.4495 397.615,76.1161 397,74.5C 396.327,65.8106 396.493,57.144 397.5,48.5 Z" />
    </g>
    <g>
        <path style="opacity:0.439" fill="#4d1815"
            d="M 450.5,60.5 C 454,63.3185 456,66.9851 456.5,71.5C 454.864,68.2661 452.864,65.2661 450.5,62.5C 450.5,61.8333 450.5,61.1667 450.5,60.5 Z" />
    </g>
    <g>
        <path style="opacity:1" fill="#f65b43"
            d="M 185.5,63.5 C 185.664,66.1873 185.497,68.854 185,71.5C 184.28,73.0557 183.113,74.0557 181.5,74.5C 179.418,74.472 177.584,75.1387 176,76.5C 175.503,74.1902 175.337,71.8568 175.5,69.5C 159.528,68.5613 143.528,68.2279 127.5,68.5C 127.719,69.675 127.386,70.675 126.5,71.5C 125.107,70.1369 123.441,69.3036 121.5,69C 117.848,68.5014 114.182,68.3347 110.5,68.5C 110.5,61.8333 110.5,55.1667 110.5,48.5C 135.5,48.5 160.5,48.5 185.5,48.5C 185.5,53.5 185.5,58.5 185.5,63.5 Z" />
    </g>
    <g>
        <path style="opacity:1" fill="#c2bcbf"
            d="M 389.5,30.5 C 389.5,48.8333 389.5,67.1667 389.5,85.5C 389.5,86.1667 389.5,86.8333 389.5,87.5C 386.833,88.8333 384.167,88.8333 381.5,87.5C 380.526,68.8798 380.192,50.2132 380.5,31.5C 380.5,31.1667 380.5,30.8333 380.5,30.5C 383.638,29.3187 386.638,29.3187 389.5,30.5 Z" />
    </g>
    <g>
        <path style="opacity:1" fill="#9a8787"
            d="M 285.5,31.5 C 285.5,49.5 285.5,67.5 285.5,85.5C 284.833,72.1667 284.167,58.8333 283.5,45.5C 283.229,40.5662 283.896,35.8996 285.5,31.5 Z" />
    </g>
    <g>
        <path style="opacity:1" fill="#f55642"
            d="M 375.5,64.5 C 375.5,67.5 375.5,70.5 375.5,73.5C 374.962,75.1172 374.629,76.7839 374.5,78.5C 374.5,79.1667 374.167,79.5 373.5,79.5C 372.069,79.8807 371.236,80.8807 371,82.5C 370.503,84.8098 370.337,87.1432 370.5,89.5C 369.523,83.8066 369.023,78.1399 369,72.5C 368.25,73.1258 367.416,73.6258 366.5,74C 367.406,75.6995 367.739,77.5328 367.5,79.5C 350.497,79.3334 333.497,79.5001 316.5,80C 314.863,81.951 313.363,81.7843 312,79.5C 310.76,82.3712 310.26,85.0379 310.5,87.5C 309.167,87.5 308.5,86.8333 308.5,85.5C 308.034,83.7988 308.034,82.2988 308.5,81C 307.437,79.8118 306.103,79.3118 304.5,79.5C 301.51,72.6119 300.844,65.6119 302.5,58.5C 323.803,59.1069 344.97,59.1069 366,58.5C 368.256,61.4363 369.589,64.7696 370,68.5C 372.86,64.6852 374.193,60.3519 374,55.5C 374.181,58.6946 374.681,61.6946 375.5,64.5 Z" />
    </g>
    <g>
        <path style="opacity:1" fill="#f55441"
            d="M 110.5,68.5 C 114.182,68.3347 117.848,68.5014 121.5,69C 123.441,69.3036 125.107,70.1369 126.5,71.5C 127.386,70.675 127.719,69.675 127.5,68.5C 143.528,68.2279 159.528,68.5613 175.5,69.5C 175.337,71.8568 175.503,74.1902 176,76.5C 177.584,75.1387 179.418,74.472 181.5,74.5C 180.902,79.813 180.569,85.1463 180.5,90.5C 179.135,87.4011 178.135,84.0677 177.5,80.5C 176.719,81.7287 176.219,83.062 176,84.5C 175.626,83.5838 175.126,82.7504 174.5,82C 171.5,81.6667 168.5,81.3333 165.5,81C 166.833,80.6667 168.167,80.3333 169.5,80C 153.789,79.8182 138.122,79.3182 122.5,78.5C 120.465,79.0412 118.465,79.7078 116.5,80.5C 117.751,84.164 117.751,87.8307 116.5,91.5C 116.167,91.5 115.833,91.5 115.5,91.5C 115.5,87.5 115.5,83.5 115.5,79.5C 114.5,79.5 113.5,79.5 112.5,79.5C 111.662,79.1583 111.328,78.4916 111.5,77.5C 111.492,74.4552 111.159,71.4552 110.5,68.5 Z" />
    </g>
    <g>
        <path style="opacity:1" fill="#a99fa2"
            d="M 191.5,30.5 C 191.5,49.5 191.5,68.5 191.5,87.5C 194.167,87.5 196.833,87.5 199.5,87.5C 197.205,89.385 194.538,89.885 191.5,89C 190.177,88.1841 189.511,87.0174 189.5,85.5C 189.768,70.4813 189.434,55.4813 188.5,40.5C 188.806,37.4682 189.306,34.4682 190,31.5C 190.383,30.944 190.883,30.6107 191.5,30.5 Z" />
    </g>
    <g>
        <path style="opacity:1" fill="#f65541"
            d="M 278.5,74.5 C 275.693,76.9584 274.359,80.1251 274.5,84C 275.396,88.3186 276.729,92.4852 278.5,96.5C 277.504,96.5858 276.671,96.2524 276,95.5C 273.796,90.1157 272.963,84.4491 273.5,78.5C 256.163,78.3334 238.83,78.5001 221.5,79C 221,79.5 220.5,80 220,80.5C 217.726,79.1888 215.56,79.1888 213.5,80.5C 212.679,83.6414 212.179,86.9748 212,90.5C 210.887,91.305 209.721,91.9717 208.5,92.5C 210.585,88.7195 210.918,84.7195 209.5,80.5C 208.817,80.1373 208.15,79.8039 207.5,79.5C 207.5,78.1667 207.5,76.8333 207.5,75.5C 206.537,71.204 206.371,66.8706 207,62.5C 220.069,63.9271 233.236,64.5938 246.5,64.5C 254.409,64.4924 262.243,64.1591 270,63.5C 271,65.1667 272,66.8333 273,68.5C 273.295,62.4426 273.961,56.4426 275,50.5C 277.134,58.3666 278.301,66.3666 278.5,74.5 Z" />
    </g>
    <g>
        <path style="opacity:0.459" fill="#6c2c28"
            d="M 38.5,57.5 C 37.8333,58.8333 37.1667,60.1667 36.5,61.5C 34.1695,64.7946 31.8362,68.128 29.5,71.5C 30.5177,65.4428 33.5177,60.7762 38.5,57.5 Z" />
    </g>
    <g>
        <path style="opacity:1" fill="#9d9998"
            d="M 389.5,30.5 C 390.167,30.5 390.833,30.5 391.5,30.5C 392.061,33.2825 392.394,36.1158 392.5,39C 391.778,54.1573 391.278,69.324 391,84.5C 390.617,85.056 390.117,85.3893 389.5,85.5C 389.5,67.1667 389.5,48.8333 389.5,30.5 Z" />
    </g>
    <g>
        <path style="opacity:1" fill="#f74b3f"
            d="M 370.5,89.5 C 372.074,91.1016 372.741,93.1016 372.5,95.5C 370.616,95.2882 369.283,94.2882 368.5,92.5C 367.614,93.325 367.281,94.325 367.5,95.5C 351.5,95.5 335.5,95.5 319.5,95.5C 319.244,93.2075 319.577,91.0408 320.5,89C 319.929,87.7949 319.262,86.6283 318.5,85.5C 316.947,87.9301 314.947,89.9301 312.5,91.5C 310.889,90.6798 310.222,89.3464 310.5,87.5C 310.26,85.0379 310.76,82.3712 312,79.5C 313.363,81.7843 314.863,81.951 316.5,80C 333.497,79.5001 350.497,79.3334 367.5,79.5C 367.739,77.5328 367.406,75.6995 366.5,74C 367.416,73.6258 368.25,73.1258 369,72.5C 369.023,78.1399 369.523,83.8066 370.5,89.5 Z" />
    </g>
    <g>
        <path style="opacity:1" fill="#f64c40"
            d="M 88.5,73.5 C 88.5,74.8333 88.5,76.1667 88.5,77.5C 86.9983,81.3425 86.3316,85.3425 86.5,89.5C 86.5758,92.9728 87.2424,96.3061 88.5,99.5C 86.202,94.7234 83.8687,95.0568 81.5,100.5C 79.4673,98.817 77.134,97.6503 74.5,97C 75.5,96.6667 76.5,96.3333 77.5,96C 62.1703,95.5001 46.837,95.3334 31.5,95.5C 31.4208,94.0695 31.7542,92.7362 32.5,91.5C 32.1445,90.4777 31.4778,89.811 30.5,89.5C 30.5,88.5 30.5,87.5 30.5,86.5C 30.3961,81.6942 31.0628,77.0275 32.5,72.5C 33.1499,72.8039 33.8165,73.1373 34.5,73.5C 36.6201,72.1091 38.9534,71.4424 41.5,71.5C 44.2706,71.0816 46.2706,72.0816 47.5,74.5C 61.2391,75.933 74.9058,75.5997 88.5,73.5 Z" />
    </g>
    <g>
        <path style="opacity:1" fill="#a1a0a0"
            d="M 198.5,30.5 C 199.167,30.8333 199.833,31.1667 200.5,31.5C 200.765,49.5234 200.431,67.5234 199.5,85.5C 198.503,67.3409 198.17,49.0076 198.5,30.5 Z" />
    </g>
    <g>
        <path style="opacity:1" fill="#8a7877"
            d="M 200.5,31.5 C 201.268,32.2625 201.768,33.2625 202,34.5C 202.499,38.4862 202.666,42.4862 202.5,46.5C 202.173,56.3478 202.506,66.0144 203.5,75.5C 203.701,78.7281 203.367,81.8948 202.5,85C 202.252,86.7491 201.252,87.5824 199.5,87.5C 199.5,86.8333 199.5,86.1667 199.5,85.5C 200.431,67.5234 200.765,49.5234 200.5,31.5 Z" />
    </g>
    <g>
        <path style="opacity:1" fill="#67080e"
            d="M 377.5,75.5 C 376.771,78.2799 376.104,81.1132 375.5,84C 375.667,85.5 375.833,87 376,88.5C 380.609,90.5104 385.442,91.0104 390.5,90C 392.329,89.7265 393.829,88.8932 395,87.5C 395.497,83.4761 395.331,79.4761 394.5,75.5C 394.833,75.5 395.167,75.5 395.5,75.5C 402.055,85.4464 400.055,93.2797 389.5,99C 376.03,99.2404 370.697,92.7404 373.5,79.5C 374.167,79.5 374.5,79.1667 374.5,78.5C 375.272,77.3065 376.272,76.3065 377.5,75.5 Z" />
    </g>
    <g>
        <path style="opacity:1" fill="#f74b3f"
            d="M 278.5,96.5 C 279.833,98.5 281.5,100.167 283.5,101.5C 279.534,99.2809 275.2,98.1142 270.5,98C 203.833,97.3333 203.833,96.6667 270.5,96C 252.167,95.6667 233.833,95.3333 215.5,95C 217.393,92.0828 217.893,88.9162 217,85.5C 216.29,84.0267 215.124,83.3601 213.5,83.5C 213.5,82.5 213.5,81.5 213.5,80.5C 215.56,79.1888 217.726,79.1888 220,80.5C 220.5,80 221,79.5 221.5,79C 238.83,78.5001 256.163,78.3334 273.5,78.5C 272.963,84.4491 273.796,90.1157 276,95.5C 276.671,96.2524 277.504,96.5858 278.5,96.5 Z" />
    </g>
    <g>
        <path style="opacity:1" fill="#f64b3f"
            d="M 451.5,79.5 C 449.862,83.9502 449.029,88.6168 449,93.5C 447.859,96.0097 446.026,97.1763 443.5,97C 443.833,96.6667 444.167,96.3333 444.5,96C 434.5,95.6667 424.5,95.3333 414.5,95C 415.711,94.1072 415.711,93.2739 414.5,92.5C 413.614,93.325 413.281,94.325 413.5,95.5C 411.473,95.6621 409.473,95.4955 407.5,95C 407.833,94.6667 408.167,94.3333 408.5,94C 407.584,93.6258 406.75,93.1258 406,92.5C 404.301,93.4061 402.467,93.7394 400.5,93.5C 401.608,88.1758 403.441,83.8425 406,80.5C 406.674,81.5784 407.674,82.2451 409,82.5C 411.912,82.642 413.412,81.3087 413.5,78.5C 423.839,78.6665 434.172,78.4998 444.5,78C 444.167,77.6667 443.833,77.3333 443.5,77C 444.5,76.8333 445.5,76.6667 446.5,76.5C 448.693,76.7705 450.359,77.7705 451.5,79.5 Z" />
    </g>
    <g>
        <path style="opacity:1" fill="#69070d"
            d="M 91.5,75.5 C 89.1882,80.4202 89.0216,85.4202 91,90.5C 93.1965,92.8743 95.5299,92.8743 98,90.5C 101.287,92.293 103.953,91.6263 106,88.5C 107.333,86.8333 108.667,85.1667 110,83.5C 110.175,80.8428 110.008,78.1761 109.5,75.5C 110.167,76.1667 110.833,76.8333 111.5,77.5C 111.328,78.4916 111.662,79.1583 112.5,79.5C 112.75,84.5805 112.25,89.5805 111,94.5C 107.24,96.2956 103.407,97.9623 99.5,99.5C 93.0302,98.7829 88.6969,95.4496 86.5,89.5C 86.3316,85.3425 86.9983,81.3425 88.5,77.5C 89.2223,76.4489 90.2223,75.7822 91.5,75.5 Z" />
    </g>
    <g>
        <path style="opacity:1" fill="#6a232c"
            d="M 282.5,75.5 C 282.833,75.5 283.167,75.5 283.5,75.5C 283.335,79.1817 283.501,82.8484 284,86.5C 287.047,89.4802 290.547,90.1469 294.5,88.5C 297.954,84.9631 299.287,80.6297 298.5,75.5C 298.833,75.5 299.167,75.5 299.5,75.5C 299.5,76.1667 299.5,76.8333 299.5,77.5C 299.342,81.2121 299.342,84.7121 299.5,88C 286.527,94.5274 280.86,90.694 282.5,76.5C 282.5,76.1667 282.5,75.8333 282.5,75.5 Z" />
    </g>
    <g>
        <path style="opacity:1" fill="#5a161a"
            d="M 377.5,75.5 C 377.833,75.5 378.167,75.5 378.5,75.5C 378.335,78.8499 378.502,82.1832 379,85.5C 379.417,86.756 380.25,87.4226 381.5,87.5C 384.167,88.8333 386.833,88.8333 389.5,87.5C 391.124,87.6399 392.29,86.9733 393,85.5C 393.498,82.1832 393.665,78.8499 393.5,75.5C 393.833,75.5 394.167,75.5 394.5,75.5C 395.331,79.4761 395.497,83.4761 395,87.5C 393.829,88.8932 392.329,89.7265 390.5,90C 385.442,91.0104 380.609,90.5104 376,88.5C 375.833,87 375.667,85.5 375.5,84C 376.104,81.1132 376.771,78.2799 377.5,75.5 Z" />
    </g>
    <g>
        <path style="opacity:1" fill="#61171e"
            d="M 91.5,75.5 C 92.0181,78.9786 93.0181,82.3119 94.5,85.5C 94.3284,86.4916 94.6618,87.1583 95.5,87.5C 95.6107,88.1174 95.944,88.6174 96.5,89C 101.419,90.6817 104.752,89.1817 106.5,84.5C 106.89,81.2033 107.89,78.2033 109.5,75.5C 110.008,78.1761 110.175,80.8428 110,83.5C 108.667,85.1667 107.333,86.8333 106,88.5C 103.953,91.6263 101.287,92.293 98,90.5C 95.5299,92.8743 93.1965,92.8743 91,90.5C 89.0216,85.4202 89.1882,80.4202 91.5,75.5 Z" />
    </g>
    <g>
        <path style="opacity:1" fill="#f64a3e"
            d="M 180.5,90.5 C 181.301,92.0418 181.634,93.7085 181.5,95.5C 180.732,94.7375 180.232,93.7375 180,92.5C 179.667,93.5 179.333,94.5 179,95.5C 178.385,93.8839 177.385,92.5505 176,91.5C 175.508,92.549 175.674,93.549 176.5,94.5C 156.845,95.4996 137.178,95.833 117.5,95.5C 117.768,93.901 117.434,92.5676 116.5,91.5C 117.751,87.8307 117.751,84.164 116.5,80.5C 118.465,79.7078 120.465,79.0412 122.5,78.5C 138.122,79.3182 153.789,79.8182 169.5,80C 168.167,80.3333 166.833,80.6667 165.5,81C 168.5,81.3333 171.5,81.6667 174.5,82C 175.126,82.7504 175.626,83.5838 176,84.5C 176.219,83.062 176.719,81.7287 177.5,80.5C 178.135,84.0677 179.135,87.4011 180.5,90.5 Z" />
    </g>
    <g>
        <path style="opacity:1" fill="#7c0d0f"
            d="M 186.5,75.5 C 184.402,80.6847 184.069,86.018 185.5,91.5C 187.249,93.5158 189.249,95.1825 191.5,96.5C 195.27,98.0245 198.77,97.6912 202,95.5C 202.639,92.8877 203.806,90.5543 205.5,88.5C 206.484,85.5719 206.817,82.5719 206.5,79.5C 206.833,79.5 207.167,79.5 207.5,79.5C 210.7,93.1264 205.367,99.6264 191.5,99C 188.751,97.8773 186.251,96.3773 184,94.5C 182.092,89.155 182.092,83.8217 184,78.5C 184.377,77.0577 185.21,76.0577 186.5,75.5 Z" />
    </g>
    <g>
        <path style="opacity:1" fill="#60060c"
            d="M 282.5,76.5 C 280.86,90.694 286.527,94.5274 299.5,88C 299.342,84.7121 299.342,81.2121 299.5,77.5C 300.5,78.1667 301.5,78.8333 302.5,79.5C 303.404,80.209 303.737,81.209 303.5,82.5C 304.115,86.9912 303.115,90.9912 300.5,94.5C 296.866,95.2136 293.366,96.2136 290,97.5C 282.695,97.3642 279.529,93.6975 280.5,86.5C 280.315,82.8589 280.981,79.5256 282.5,76.5 Z" />
    </g>
    <g>
        <path style="opacity:1" fill="#600c12"
            d="M 186.5,75.5 C 186.833,75.5 187.167,75.5 187.5,75.5C 187.336,78.1873 187.503,80.854 188,83.5C 188.278,84.4158 188.778,85.0825 189.5,85.5C 189.511,87.0174 190.177,88.1841 191.5,89C 194.538,89.885 197.205,89.385 199.5,87.5C 201.252,87.5824 202.252,86.7491 202.5,85C 203.367,81.8948 203.701,78.7281 203.5,75.5C 205.446,76.0347 206.446,77.368 206.5,79.5C 206.817,82.5719 206.484,85.5719 205.5,88.5C 203.806,90.5543 202.639,92.8877 202,95.5C 198.77,97.6912 195.27,98.0245 191.5,96.5C 189.249,95.1825 187.249,93.5158 185.5,91.5C 184.069,86.018 184.402,80.6847 186.5,75.5 Z" />
    </g>
    <g>
        <path style="opacity:1" fill="#770b0c"
            d="M 282.5,75.5 C 282.5,75.8333 282.5,76.1667 282.5,76.5C 280.981,79.5256 280.315,82.8589 280.5,86.5C 279.529,93.6975 282.695,97.3642 290,97.5C 293.366,96.2136 296.866,95.2136 300.5,94.5C 291.446,101.963 283.946,100.63 278,90.5C 277.15,85.9787 277.65,81.6454 279.5,77.5C 280.222,76.4489 281.222,75.7822 282.5,75.5 Z" />
    </g>
    <g>
        <path style="opacity:1" fill="#f6413f"
            d="M 30.5,89.5 C 31.4778,89.811 32.1445,90.4777 32.5,91.5C 31.7542,92.7362 31.4208,94.0695 31.5,95.5C 46.837,95.3334 62.1703,95.5001 77.5,96C 76.5,96.3333 75.5,96.6667 74.5,97C 77.134,97.6503 79.4673,98.817 81.5,100.5C 81.7464,102.628 82.4131,104.961 83.5,107.5C 88.4906,107.747 88.6573,109.08 84,111.5C 82.1183,110.907 81.1183,109.573 81,107.5C 80.3076,108.025 79.8076,108.692 79.5,109.5C 76.8333,109.833 74.1667,110.167 71.5,110.5C 59.4734,111.328 47.4734,111.661 35.5,111.5C 34.5,111.5 33.5,111.5 32.5,111.5C 32.7062,114.495 32.0395,117.162 30.5,119.5C 30.5,109.5 30.5,99.5 30.5,89.5 Z" />
    </g>
    <g>
        <path style="opacity:1" fill="#de4944"
            d="M 112.5,79.5 C 113.5,79.5 114.5,79.5 115.5,79.5C 115.5,83.5 115.5,87.5 115.5,91.5C 112.687,95.4673 109.021,98.6339 104.5,101C 98.9201,101.996 93.5868,101.496 88.5,99.5C 87.2424,96.3061 86.5758,92.9728 86.5,89.5C 88.6969,95.4496 93.0302,98.7829 99.5,99.5C 103.407,97.9623 107.24,96.2956 111,94.5C 112.25,89.5805 112.75,84.5805 112.5,79.5 Z" />
    </g>
    <g>
        <path style="opacity:1" fill="#dd4e48"
            d="M 185.5,63.5 C 186.483,67.2984 186.817,71.2984 186.5,75.5C 185.21,76.0577 184.377,77.0577 184,78.5C 182.092,83.8217 182.092,89.155 184,94.5C 186.251,96.3773 188.751,97.8773 191.5,99C 205.367,99.6264 210.7,93.1264 207.5,79.5C 208.15,79.8039 208.817,80.1373 209.5,80.5C 210.918,84.7195 210.585,88.7195 208.5,92.5C 207.817,96.0198 205.817,98.5198 202.5,100C 198.5,100.667 194.5,100.667 190.5,100C 187.478,98.489 184.478,96.989 181.5,95.5C 181.634,93.7085 181.301,92.0418 180.5,90.5C 180.569,85.1463 180.902,79.813 181.5,74.5C 183.113,74.0557 184.28,73.0557 185,71.5C 185.497,68.854 185.664,66.1873 185.5,63.5 Z" />
    </g>
    <g>
        <path style="opacity:1" fill="#f6423e"
            d="M 451.5,79.5 C 453.144,84.5896 454.144,89.923 454.5,95.5C 454.5,100.833 454.5,106.167 454.5,111.5C 453.513,106.695 453.179,101.695 453.5,96.5C 452.5,96.5 451.5,96.5 450.5,96.5C 449.746,101.463 449.413,106.463 449.5,111.5C 443.15,108.713 436.483,107.88 429.5,109C 425.5,112.333 421.5,112.333 417.5,109C 412.778,108.223 408.111,108.39 403.5,109.5C 401.866,109.032 400.7,108.032 400,106.5C 399.517,107.448 399.351,108.448 399.5,109.5C 395.787,108.995 392.287,108.662 389,108.5C 386.306,112.087 383.139,112.421 379.5,109.5C 378.216,110.585 376.716,111.252 375,111.5C 368.474,110.348 361.974,109.015 355.5,107.5C 344.746,108.178 334.08,109.511 323.5,111.5C 321.22,111.267 319.22,110.434 317.5,109C 312.845,108.501 308.179,108.334 303.5,108.5C 303.5,109.5 303.5,110.5 303.5,111.5C 298.644,111.186 293.644,111.019 288.5,111C 284.233,108.149 279.9,107.649 275.5,109.5C 273.459,108.009 271.959,108.342 271,110.5C 248.583,107.32 226.083,106.986 203.5,109.5C 201.9,109.449 200.4,109.116 199,108.5C 192.475,111.739 185.808,112.072 179,109.5C 159.359,111.499 139.692,112.166 120,111.5C 114.284,110.772 108.617,109.772 103,108.5C 99.9871,109.856 97.1538,109.69 94.5,108C 95.1667,107 95.8333,106 96.5,105C 94.2994,103.957 91.9661,103.123 89.5,102.5C 88.8728,101.583 88.5394,100.583 88.5,99.5C 93.5868,101.496 98.9201,101.996 104.5,101C 109.021,98.6339 112.687,95.4673 115.5,91.5C 115.833,91.5 116.167,91.5 116.5,91.5C 117.434,92.5676 117.768,93.901 117.5,95.5C 137.178,95.833 156.845,95.4996 176.5,94.5C 175.674,93.549 175.508,92.549 176,91.5C 177.385,92.5505 178.385,93.8839 179,95.5C 179.333,94.5 179.667,93.5 180,92.5C 180.232,93.7375 180.732,94.7375 181.5,95.5C 184.478,96.989 187.478,98.489 190.5,100C 194.5,100.667 198.5,100.667 202.5,100C 205.817,98.5198 207.817,96.0198 208.5,92.5C 209.721,91.9717 210.887,91.305 212,90.5C 212.179,86.9748 212.679,83.6414 213.5,80.5C 213.5,81.5 213.5,82.5 213.5,83.5C 215.124,83.3601 216.29,84.0267 217,85.5C 217.893,88.9162 217.393,92.0828 215.5,95C 233.833,95.3333 252.167,95.6667 270.5,96C 203.833,96.6667 203.833,97.3333 270.5,98C 275.2,98.1142 279.534,99.2809 283.5,101.5C 288.003,102.584 292.669,103.084 297.5,103C 300.306,100.194 303.14,97.3604 306,94.5C 307.195,91.8127 307.362,89.146 306.5,86.5C 306.957,85.7025 307.624,85.3691 308.5,85.5C 308.5,86.8333 309.167,87.5 310.5,87.5C 310.222,89.3464 310.889,90.6798 312.5,91.5C 314.947,89.9301 316.947,87.9301 318.5,85.5C 319.262,86.6283 319.929,87.7949 320.5,89C 319.577,91.0408 319.244,93.2075 319.5,95.5C 335.5,95.5 351.5,95.5 367.5,95.5C 367.281,94.325 367.614,93.325 368.5,92.5C 369.283,94.2882 370.616,95.2882 372.5,95.5C 375.599,100.388 380.099,102.388 386,101.5C 388.5,101.333 391,101.167 393.5,101C 395.027,98.3098 397.027,96.1432 399.5,94.5C 400.167,94.5 400.5,94.1667 400.5,93.5C 402.467,93.7394 404.301,93.4061 406,92.5C 406.75,93.1258 407.584,93.6258 408.5,94C 408.167,94.3333 407.833,94.6667 407.5,95C 409.473,95.4955 411.473,95.6621 413.5,95.5C 413.281,94.325 413.614,93.325 414.5,92.5C 415.711,93.2739 415.711,94.1072 414.5,95C 424.5,95.3333 434.5,95.6667 444.5,96C 444.167,96.3333 443.833,96.6667 443.5,97C 446.026,97.1763 447.859,96.0097 449,93.5C 449.029,88.6168 449.862,83.9502 451.5,79.5 Z" />
    </g>
    <g>
        <path style="opacity:1" fill="#e04d47"
            d="M 397.5,48.5 C 396.493,57.144 396.327,65.8106 397,74.5C 397.615,76.1161 398.615,77.4495 400,78.5C 400.609,83.8613 400.442,89.1946 399.5,94.5C 397.027,96.1432 395.027,98.3098 393.5,101C 391,101.167 388.5,101.333 386,101.5C 380.099,102.388 375.599,100.388 372.5,95.5C 372.741,93.1016 372.074,91.1016 370.5,89.5C 370.337,87.1432 370.503,84.8098 371,82.5C 371.236,80.8807 372.069,79.8807 373.5,79.5C 370.697,92.7404 376.03,99.2404 389.5,99C 400.055,93.2797 402.055,85.4464 395.5,75.5C 394.862,66.1045 395.529,57.1045 397.5,48.5 Z" />
    </g>
    <g>
        <path style="opacity:1" fill="#e44a43"
            d="M 278.5,74.5 C 278.833,74.5 279.167,74.5 279.5,74.5C 279.5,75.5 279.5,76.5 279.5,77.5C 277.65,81.6454 277.15,85.9787 278,90.5C 283.946,100.63 291.446,101.963 300.5,94.5C 303.115,90.9912 304.115,86.9912 303.5,82.5C 304.404,81.791 304.737,80.791 304.5,79.5C 306.103,79.3118 307.437,79.8118 308.5,81C 308.034,82.2988 308.034,83.7988 308.5,85.5C 307.624,85.3691 306.957,85.7025 306.5,86.5C 307.362,89.146 307.195,91.8127 306,94.5C 303.14,97.3604 300.306,100.194 297.5,103C 292.669,103.084 288.003,102.584 283.5,101.5C 281.5,100.167 279.833,98.5 278.5,96.5C 276.729,92.4852 275.396,88.3186 274.5,84C 274.359,80.1251 275.693,76.9584 278.5,74.5 Z" />
    </g>
    <g>
        <path style="opacity:0.765" fill="#c74846"
            d="M 36.5,61.5 C 36.6621,63.5273 36.4955,65.5273 36,67.5C 33.4438,68.2191 32.2771,69.8858 32.5,72.5C 31.0628,77.0275 30.3961,81.6942 30.5,86.5C 29.1749,105.736 29.1749,125.069 30.5,144.5C 29.8333,144.5 29.1667,144.5 28.5,144.5C 28.249,120.151 28.5823,95.818 29.5,71.5C 31.8362,68.128 34.1695,64.7946 36.5,61.5 Z" />
    </g>
    <g>
        <path style="opacity:1" fill="#f73a3b"
            d="M 88.5,99.5 C 88.5394,100.583 88.8728,101.583 89.5,102.5C 91.9661,103.123 94.2994,103.957 96.5,105C 95.8333,106 95.1667,107 94.5,108C 97.1538,109.69 99.9871,109.856 103,108.5C 108.617,109.772 114.284,110.772 120,111.5C 139.692,112.166 159.359,111.499 179,109.5C 185.808,112.072 192.475,111.739 199,108.5C 200.4,109.116 201.9,109.449 203.5,109.5C 226.083,106.986 248.583,107.32 271,110.5C 271.959,108.342 273.459,108.009 275.5,109.5C 279.9,107.649 284.233,108.149 288.5,111C 293.644,111.019 298.644,111.186 303.5,111.5C 303.5,110.5 303.5,109.5 303.5,108.5C 308.179,108.334 312.845,108.501 317.5,109C 319.22,110.434 321.22,111.267 323.5,111.5C 334.08,109.511 344.746,108.178 355.5,107.5C 361.974,109.015 368.474,110.348 375,111.5C 376.716,111.252 378.216,110.585 379.5,109.5C 383.139,112.421 386.306,112.087 389,108.5C 392.287,108.662 395.787,108.995 399.5,109.5C 399.351,108.448 399.517,107.448 400,106.5C 400.7,108.032 401.866,109.032 403.5,109.5C 408.111,108.39 412.778,108.223 417.5,109C 421.5,112.333 425.5,112.333 429.5,109C 436.483,107.88 443.15,108.713 449.5,111.5C 449.875,114.397 449.375,117.063 448,119.5C 447.503,117.19 447.337,114.857 447.5,112.5C 446.167,112.5 444.833,112.5 443.5,112.5C 443.64,114.124 442.973,115.29 441.5,116C 333.783,116.086 227.783,116.252 123.5,116.5C 94.8333,116.333 66.1667,116.167 37.5,116C 35.8934,114.951 35.2267,113.451 35.5,111.5C 47.4734,111.661 59.4734,111.328 71.5,110.5C 74.1667,110.167 76.8333,109.833 79.5,109.5C 79.8076,108.692 80.3076,108.025 81,107.5C 81.1183,109.573 82.1183,110.907 84,111.5C 88.6573,109.08 88.4906,107.747 83.5,107.5C 82.4131,104.961 81.7464,102.628 81.5,100.5C 83.8687,95.0568 86.202,94.7234 88.5,99.5 Z" />
    </g>
    <g>
        <path style="opacity:1" fill="#f73439"
            d="M 454.5,111.5 C 454.167,119.5 453.833,127.5 453.5,135.5C 452.5,135.5 451.5,135.5 450.5,135.5C 450.487,130.74 449.82,126.074 448.5,121.5C 446.365,122.881 444.032,123.881 441.5,124.5C 306.835,125.667 172.168,125.833 37.5,125C 38.1667,124.667 38.8333,124.333 39.5,124C 36.5184,123.502 33.5184,123.335 30.5,123.5C 30.5,122.167 30.5,120.833 30.5,119.5C 32.0395,117.162 32.7062,114.495 32.5,111.5C 33.5,111.5 34.5,111.5 35.5,111.5C 35.2267,113.451 35.8934,114.951 37.5,116C 66.1667,116.167 94.8333,116.333 123.5,116.5C 227.783,116.252 333.783,116.086 441.5,116C 442.973,115.29 443.64,114.124 443.5,112.5C 444.833,112.5 446.167,112.5 447.5,112.5C 447.337,114.857 447.503,117.19 448,119.5C 449.375,117.063 449.875,114.397 449.5,111.5C 449.413,106.463 449.746,101.463 450.5,96.5C 451.5,96.5 452.5,96.5 453.5,96.5C 453.179,101.695 453.513,106.695 454.5,111.5 Z" />
    </g>
    <g>
        <path style="opacity:0.259" fill="#6c191a"
            d="M 29.5,71.5 C 28.5823,95.818 28.249,120.151 28.5,144.5C 28.5,144.833 28.5,145.167 28.5,145.5C 28.5,146.167 28.1667,146.5 27.5,146.5C 27.3334,123.164 27.5,99.831 28,76.5C 28.1981,74.6183 28.6981,72.9516 29.5,71.5 Z" />
    </g>
    <g>
        <path style="opacity:1" fill="#fa2e39"
            d="M 454.5,111.5 C 455.494,121.987 455.828,132.654 455.5,143.5C 455.167,143.5 454.833,143.5 454.5,143.5C 453.167,143.5 451.833,143.5 450.5,143.5C 450.732,138.954 449.899,134.621 448,130.5C 380.043,131.832 311.876,132.498 243.5,132.5C 175.127,132.498 106.793,132.165 38.5,131.5C 36.2906,132.106 34.124,132.773 32,133.5C 31.502,136.482 31.3354,139.482 31.5,142.5C 30.5098,136.355 30.1765,130.022 30.5,123.5C 33.5184,123.335 36.5184,123.502 39.5,124C 38.8333,124.333 38.1667,124.667 37.5,125C 172.168,125.833 306.835,125.667 441.5,124.5C 444.032,123.881 446.365,122.881 448.5,121.5C 449.82,126.074 450.487,130.74 450.5,135.5C 451.5,135.5 452.5,135.5 453.5,135.5C 453.833,127.5 454.167,119.5 454.5,111.5 Z" />
    </g>
    <g>
        <path style="opacity:1" fill="#f72837"
            d="M 450.5,143.5 C 310.666,143.833 170.999,143.5 31.5,142.5C 31.3354,139.482 31.502,136.482 32,133.5C 34.124,132.773 36.2906,132.106 38.5,131.5C 106.793,132.165 175.127,132.498 243.5,132.5C 311.876,132.498 380.043,131.832 448,130.5C 449.899,134.621 450.732,138.954 450.5,143.5 Z" />
    </g>
    <g>
        <path style="opacity:1" fill="#eb394b"
            d="M 454.5,95.5 C 455.167,95.5 455.833,95.5 456.5,95.5C 456.83,111.675 456.496,127.675 455.5,143.5C 455.828,132.654 455.494,121.987 454.5,111.5C 454.5,106.167 454.5,100.833 454.5,95.5 Z" />
    </g>
    <g>
        <path style="opacity:0.082" fill="#58191b"
            d="M 456.5,71.5 C 457.268,72.2625 457.768,73.2625 458,74.5C 458.5,98.1643 458.667,121.831 458.5,145.5C 458.167,145.5 457.833,145.5 457.5,145.5C 457.831,122.327 457.498,99.3273 456.5,76.5C 456.5,74.8333 456.5,73.1667 456.5,71.5 Z" />
    </g>
    <g>
        <path style="opacity:1" fill="#e52d3d"
            d="M 30.5,86.5 C 30.5,87.5 30.5,88.5 30.5,89.5C 30.5,99.5 30.5,109.5 30.5,119.5C 30.5,120.833 30.5,122.167 30.5,123.5C 30.1765,130.022 30.5098,136.355 31.5,142.5C 170.999,143.5 310.666,143.833 450.5,143.5C 451.833,143.5 453.167,143.5 454.5,143.5C 313.334,144.5 172.001,144.833 30.5,144.5C 29.1749,125.069 29.1749,105.736 30.5,86.5 Z" />
    </g>
    <g>
        <path style="opacity:1" fill="#da4a56"
            d="M 456.5,76.5 C 457.498,99.3273 457.831,122.327 457.5,145.5C 314.5,145.5 171.5,145.5 28.5,145.5C 28.5,145.167 28.5,144.833 28.5,144.5C 29.1667,144.5 29.8333,144.5 30.5,144.5C 172.001,144.833 313.334,144.5 454.5,143.5C 454.833,143.5 455.167,143.5 455.5,143.5C 456.496,127.675 456.83,111.675 456.5,95.5C 456.5,89.1667 456.5,82.8333 456.5,76.5 Z" />
    </g>
    <g>
        <path style="opacity:1" fill="#c2a19e"
            d="M 28.5,145.5 C 171.5,145.5 314.5,145.5 457.5,145.5C 457.833,145.5 458.167,145.5 458.5,145.5C 458.833,246.668 458.499,347.668 457.5,448.5C 457.5,348.5 457.5,248.5 457.5,148.5C 315.001,147.5 172.334,147.167 29.5,147.5C 28.5006,247.332 28.1672,347.332 28.5,447.5C 27.5006,347.335 27.1672,247.001 27.5,146.5C 28.1667,146.5 28.5,146.167 28.5,145.5 Z" />
    </g>
    <g>
        <path style="opacity:1" fill="#fef5f2"
            d="M 29.5,147.5 C 172.334,147.167 315.001,147.5 457.5,148.5C 314.793,148.17 172.126,148.503 29.5,149.5C 29.5,148.833 29.5,148.167 29.5,147.5 Z" />
    </g>
    <g>
        <path style="opacity:1" fill="#fefefe"
            d="M 457.5,148.5 C 457.5,248.5 457.5,348.5 457.5,448.5C 456.956,452.466 455.623,456.133 453.5,459.5C 451.5,459.5 450.5,460.5 450.5,462.5C 447.868,463.534 445.201,464.534 442.5,465.5C 441.705,467.495 441.039,469.495 440.5,471.5C 438.473,471.338 436.473,471.505 434.5,472C 435.756,472.417 436.423,473.25 436.5,474.5C 432.917,475.518 429.25,476.351 425.5,477C 303.833,477.667 182.167,477.667 60.5,477C 58.6183,476.802 56.9516,476.302 55.5,475.5C 54.3915,474.71 53.0581,474.21 51.5,474C 51.8333,473.667 52.1667,473.333 52.5,473C 50.1341,472.56 47.8008,472.06 45.5,471.5C 45.0269,470.094 44.0269,469.427 42.5,469.5C 41.7377,467.738 40.4044,466.738 38.5,466.5C 38.1307,464.559 37.464,462.725 36.5,461C 37.3402,459.334 36.8402,459.167 35,460.5C 33.9887,457.8 32.4887,455.467 30.5,453.5C 29.5158,352.18 29.1824,250.847 29.5,149.5C 172.126,148.503 314.793,148.17 457.5,148.5 Z" />
    </g>
    <g>
        <path style="opacity:0.825" fill="#e2e2e2"
            d="M 29.5,147.5 C 29.5,148.167 29.5,148.833 29.5,149.5C 29.1824,250.847 29.5158,352.18 30.5,453.5C 28.9261,451.898 28.2594,449.898 28.5,447.5C 28.1672,347.332 28.5006,247.332 29.5,147.5 Z" />
    </g>
    <g>
        <path style="opacity:0.878" fill="#a1a1a1"
            d="M 30.5,453.5 C 32.4887,455.467 33.9887,457.8 35,460.5C 36.8402,459.167 37.3402,459.334 36.5,461C 37.464,462.725 38.1307,464.559 38.5,466.5C 34.2129,463.203 31.5462,458.869 30.5,453.5 Z" />
    </g>
    <g>
        <path style="opacity:0.024" fill="#5b5b5b"
            d="M 453.5,459.5 C 452.833,460.833 451.833,461.833 450.5,462.5C 450.5,460.5 451.5,459.5 453.5,459.5 Z" />
    </g>
    <g>
        <path style="opacity:0.994" fill="#c7c7c7"
            d="M 450.5,462.5 C 448.423,466.876 445.089,469.876 440.5,471.5C 441.039,469.495 441.705,467.495 442.5,465.5C 445.201,464.534 447.868,463.534 450.5,462.5 Z" />
    </g>
    <g>
        <path style="opacity:0.208" fill="#5c5c5c"
            d="M 38.5,466.5 C 40.4044,466.738 41.7377,467.738 42.5,469.5C 40.5956,469.262 39.2623,468.262 38.5,466.5 Z" />
    </g>
    <g>
        <path style="opacity:0.169" fill="#727272"
            d="M 42.5,469.5 C 44.0269,469.427 45.0269,470.094 45.5,471.5C 43.9731,471.573 42.9731,470.906 42.5,469.5 Z" />
    </g>
    <g>
        <path style="opacity:0.931" fill="#969696"
            d="M 440.5,471.5 C 439.564,472.974 438.23,473.974 436.5,474.5C 436.423,473.25 435.756,472.417 434.5,472C 436.473,471.505 438.473,471.338 440.5,471.5 Z" />
    </g>
    <g>
        <path style="opacity:0.878" fill="#a6a6a6"
            d="M 45.5,471.5 C 47.8008,472.06 50.1341,472.56 52.5,473C 52.1667,473.333 51.8333,473.667 51.5,474C 53.0581,474.21 54.3915,474.71 55.5,475.5C 51.433,475.794 48.0997,474.46 45.5,471.5 Z" />
    </g>
</svg>